<?xml version="1.0" standalone="no"?>
<!DOCTYPE svg PUBLIC "-//W3C//DTD SVG 20010904//EN"
 "http://www.w3.org/TR/2001/REC-SVG-20010904/DTD/svg10.dtd">
<svg version="1.0" xmlns="http://www.w3.org/2000/svg"
 width="499.000000pt" height="700.000000pt" viewBox="0 0 499.000000 700.000000"
 preserveAspectRatio="xMidYMid meet">

<g transform="translate(0.000000,700.000000) scale(0.100000,-0.100000)"
fill="#000000" stroke="none">
<path d="M2910 6975 c-719 -130 -1228 -399 -1515 -800 -110 -154 -197 -363
-231 -555 -18 -101 -23 -318 -11 -411 l8 -55 -124 -61 c-289 -142 -508 -312
-685 -532 -577 -717 -433 -1666 339 -2241 l77 -57 -133 -6 c-106 -4 -143 -10
-181 -27 -124 -54 -155 -144 -94 -268 61 -122 211 -225 395 -272 275 -71 670
4 888 168 49 37 69 46 95 44 31 -3 32 -5 32 -50 1 -192 95 -573 222 -892 246
-624 534 -935 887 -957 50 -3 103 -1 126 6 75 20 138 104 151 204 l6 44 127 7
c359 18 654 111 871 273 81 61 201 187 255 268 73 110 110 188 155 324 62 186
75 280 75 546 0 228 -10 326 -49 494 l-12 54 -72 -91 c-128 -159 -243 -251
-371 -292 -96 -31 -227 -26 -319 12 -64 27 -172 88 -172 98 0 3 30 13 68 23
223 58 439 196 580 371 99 123 136 264 94 360 -28 62 -88 92 -167 82 -43 -5
-281 -69 -337 -91 -10 -4 5 26 38 76 74 110 130 224 193 393 76 202 94 290 94
471 1 275 -51 436 -233 721 -89 140 -159 230 -258 336 l-64 68 32 17 c473 259
848 706 1108 1318 89 209 204 567 188 583 -9 9 -374 -17 -551 -39 -467 -59
-802 -163 -1092 -340 -241 -147 -469 -394 -619 -670 -50 -92 -62 -109 -79
-104 -11 2 -67 12 -125 21 -58 10 -107 19 -109 20 -2 2 26 43 61 91 307 416
509 845 573 1217 18 108 19 126 3 125 -7 0 -69 -11 -138 -24z m-515 -1796
c338 -37 618 -127 870 -279 282 -171 515 -411 648 -668 53 -103 104 -229 96
-236 -2 -1 -77 20 -167 48 l-163 51 -34 83 c-63 155 -185 324 -330 460 -78 73
-282 228 -290 220 -2 -2 21 -44 51 -93 86 -140 264 -507 264 -544 0 -5 -21 -3
-47 5 -90 28 -409 106 -746 184 -186 43 -340 80 -341 82 -2 1 -36 143 -76 313
-40 171 -73 311 -75 313 -7 8 -108 -25 -170 -55 -86 -43 -142 -83 -268 -191
-85 -74 -281 -280 -324 -342 -11 -16 -25 -20 -71 -20 -52 0 -348 -31 -446 -47
l-40 -6 34 44 c77 100 315 325 408 387 52 33 99 63 105 65 7 2 9 7 6 11 -9 9
-182 -91 -283 -163 -104 -73 -247 -209 -307 -291 l-48 -65 -136 -20 c-74 -12
-135 -19 -135 -16 0 3 14 24 31 46 317 419 905 714 1482 744 176 9 272 5 502
-20z m-320 -444 c37 -159 72 -295 76 -301 5 -6 40 -17 79 -24 38 -7 70 -16 70
-19 0 -4 -20 -33 -45 -66 -61 -81 -139 -241 -170 -349 -40 -139 -48 -216 -42
-386 4 -125 10 -173 31 -248 116 -418 406 -708 812 -813 75 -19 114 -23 244
-23 135 1 168 4 255 27 55 15 148 51 208 80 59 29 107 49 107 46 0 -12 -171
-169 -251 -230 -290 -221 -655 -365 -1059 -420 -123 -17 -468 -17 -590 0 -432
59 -807 214 -1112 459 -203 165 -389 411 -476 632 -48 121 -47 129 6 50 106
-160 240 -240 401 -240 271 1 544 250 674 616 53 149 72 265 71 449 0 186 -17
282 -68 400 -32 70 -32 75 -3 75 17 0 39 19 78 67 84 105 305 322 399 393 86
64 219 134 232 122 3 -4 36 -137 73 -297z m1266 -226 l29 -36 -30 6 c-25 5
-35 16 -56 61 l-25 55 26 -25 c15 -14 40 -41 56 -61z m-2183 -108 c81 -42 125
-117 125 -217 1 -150 -145 -268 -278 -224 -50 16 -114 75 -136 125 -39 85 -13
223 52 281 63 57 165 72 237 35z m1312 -46 c30 -8 116 -29 192 -46 l136 -32
-56 -68 c-168 -199 -232 -432 -188 -679 51 -287 269 -532 550 -622 41 -13 103
-21 186 -25 107 -5 138 -2 210 16 222 55 406 200 513 404 38 73 40 66 10 -43
-32 -122 -66 -210 -117 -305 -44 -84 -63 -109 -122 -159 -131 -110 -286 -185
-460 -221 -99 -20 -284 -21 -384 -1 -318 62 -592 274 -735 571 -186 384 -136
841 128 1172 46 58 56 60 137 38z m-1940 -27 c-38 -58 -99 -191 -121 -263 -30
-100 -37 -297 -15 -397 60 -269 256 -425 476 -379 172 36 339 196 426 409 27
67 30 55 8 -32 -22 -85 -70 -198 -119 -281 -23 -38 -54 -92 -70 -120 -16 -27
-67 -89 -114 -136 -70 -69 -103 -94 -175 -130 l-89 -44 -111 0 c-103 0 -115 2
-171 30 -89 44 -183 143 -234 246 -64 129 -105 292 -104 409 1 113 23 247 59
361 31 99 129 308 148 315 7 3 60 13 117 23 57 10 106 19 107 20 2 0 -6 -14
-18 -31z m3127 -313 c66 -29 137 -95 168 -155 9 -18 20 -59 22 -90 14 -153
-125 -272 -303 -257 -238 19 -392 271 -265 433 81 103 239 132 378 69z m628
-1352 c14 -13 16 -27 10 -67 -11 -88 -46 -148 -142 -244 -138 -139 -284 -224
-471 -274 -100 -26 -327 -36 -455 -18 -137 19 -143 23 -77 52 147 67 334 191
481 320 67 60 106 85 161 107 147 57 413 139 460 140 9 1 24 -7 33 -16z
m-3289 -537 c21 -7 80 -32 129 -54 104 -46 246 -94 351 -119 41 -10 74 -21 74
-24 0 -10 -139 -76 -209 -98 -182 -59 -416 -73 -562 -33 -155 42 -267 118
-319 215 -39 74 -14 112 85 128 80 13 405 2 451 -15z m2026 -141 c111 -30 290
-55 394 -55 74 0 76 -1 130 -44 124 -101 246 -157 386 -177 182 -25 373 49
544 213 l41 39 6 -31 c12 -56 20 -304 13 -363 l-8 -58 -154 2 c-85 1 -157 -1
-160 -4 -17 -17 160 -56 255 -57 l54 0 -6 -57 c-23 -217 -140 -479 -291 -647
l-43 -49 -149 101 c-82 55 -151 99 -154 96 -2 -3 51 -60 118 -126 68 -67 119
-124 115 -127 -5 -3 -29 -20 -53 -37 -117 -82 -305 -157 -487 -193 -158 -32
-141 -40 -220 107 -56 104 -69 122 -71 100 -2 -15 12 -73 31 -130 19 -57 34
-104 32 -106 -2 -2 -49 -4 -105 -5 l-101 -2 -25 59 c-59 144 -250 381 -462
572 l-109 99 26 23 c67 59 67 58 114 15 128 -118 349 -177 524 -140 116 25
195 69 290 160 142 137 213 264 213 383 0 148 -113 247 -285 249 -100 0 -151
-23 -279 -125 l-88 -71 -54 42 c-68 52 -140 130 -216 234 l-59 80 83 26 c46
15 91 27 100 28 9 1 59 -10 110 -24z m-399 -80 c5 -10 -4 -16 -31 -21 -247
-41 -478 -99 -618 -153 -64 -25 -74 -27 -75 -12 0 9 -3 48 -7 87 l-8 72 136
-5 c138 -6 350 8 475 31 97 18 122 18 128 1z m260 -312 c37 -36 66 -67 65 -67
-2 -1 -37 -22 -78 -46 -207 -119 -356 -235 -563 -438 -86 -85 -159 -153 -162
-151 -5 6 -108 270 -125 322 -11 35 -10 39 12 58 64 55 278 188 393 245 131
64 333 143 370 143 11 1 49 -28 88 -66z m416 -24 c78 -44 135 -92 183 -155
l40 -54 -25 -32 c-57 -75 -133 -140 -205 -176 -69 -34 -84 -37 -177 -40 -76
-3 -118 0 -161 13 -71 20 -164 68 -194 100 l-21 23 163 102 c90 57 201 136
248 177 47 40 87 73 89 73 2 0 29 -14 60 -31z m271 -84 c0 -30 -4 -56 -9 -60
-12 -7 -61 56 -61 78 0 17 49 49 62 40 5 -2 8 -28 8 -58z m-990 -566 c127
-116 230 -228 311 -336 55 -73 57 -78 44 -103 -42 -82 -170 -217 -262 -277
-23 -15 -26 -14 -79 22 -115 80 -264 271 -356 459 l-43 88 130 124 c71 68 133
124 138 124 4 0 57 -45 117 -101z m290 -731 c0 -68 0 -68 -27 -68 -16 0 -50
10 -77 23 l-49 22 69 57 c46 38 71 53 76 45 4 -7 8 -42 8 -79z"/>
<path d="M1901 3084 c-43 -62 -116 -120 -178 -140 -43 -14 -87 -19 -173 -19
-130 0 -167 12 -261 86 l-49 39 0 -38 c0 -61 27 -199 53 -278 60 -175 139
-279 255 -336 61 -30 75 -33 157 -33 106 1 171 24 228 83 99 102 135 301 87
486 -20 77 -66 177 -85 183 -5 1 -21 -13 -34 -33z m68 -418 c-12 -66 -33 -109
-74 -154 -40 -45 -122 -82 -182 -82 l-36 0 7 55 c17 145 100 223 237 225 l56
0 -8 -44z"/>
<path d="M2479 4303 l-24 -28 28 24 c25 23 32 31 24 31 -2 0 -14 -12 -28 -27z"/>
<path d="M2231 3514 c0 -11 3 -14 6 -6 3 7 2 16 -1 19 -3 4 -6 -2 -5 -13z"/>
<path d="M2510 2928 c24 -27 45 -48 47 -48 8 0 0 9 -44 50 l-48 45 45 -47z"/>
<path d="M3814 2918 l-19 -23 23 19 c12 11 22 21 22 23 0 8 -8 2 -26 -19z"/>
<path d="M3008 2663 c7 -3 16 -2 19 1 4 3 -2 6 -13 5 -11 0 -14 -3 -6 -6z"/>
<path d="M3318 2663 c7 -3 16 -2 19 1 4 3 -2 6 -13 5 -11 0 -14 -3 -6 -6z"/>
<path d="M3098 2653 c7 -3 16 -2 19 1 4 3 -2 6 -13 5 -11 0 -14 -3 -6 -6z"/>
<path d="M3228 2653 c7 -3 16 -2 19 1 4 3 -2 6 -13 5 -11 0 -14 -3 -6 -6z"/>
<path d="M1084 3258 l-19 -23 23 19 c21 18 27 26 19 26 -2 0 -12 -10 -23 -22z"/>
<path d="M305 3170 c21 -22 41 -40 44 -40 3 0 -13 18 -34 40 -21 22 -41 40
-44 40 -3 0 13 -18 34 -40z"/>
<path d="M999 3173 c-13 -16 -12 -17 4 -4 16 13 21 21 13 21 -2 0 -10 -8 -17
-17z"/>
</g>
</svg>
