<?xml version="1.0" standalone="no"?>
<!DOCTYPE svg PUBLIC "-//W3C//DTD SVG 20010904//EN"
 "http://www.w3.org/TR/2001/REC-SVG-20010904/DTD/svg10.dtd">
<svg version="1.0" xmlns="http://www.w3.org/2000/svg"
 width="600.000000pt" height="631.000000pt" viewBox="0 0 600.000000 631.000000"
 preserveAspectRatio="xMidYMid meet">

<g transform="translate(0.000000,631.000000) scale(0.100000,-0.100000)"
fill="#000000" stroke="none">
<path d="M3525 6145 c-96 -26 -167 -57 -240 -106 -199 -133 -294 -338 -308
-659 l-2 -55 -105 -27 c-279 -72 -576 -213 -799 -378 l-79 -58 -23 24 c-60 63
-189 85 -269 44 -21 -11 -41 -24 -45 -30 -3 -5 -38 18 -78 51 -129 109 -271
162 -432 162 -113 0 -195 -21 -310 -77 -235 -116 -365 -307 -395 -580 -16
-139 -1 -243 65 -444 64 -196 71 -266 33 -333 -40 -71 -111 -85 -230 -47 -62
20 -70 21 -84 6 -15 -14 -14 -19 3 -59 44 -99 195 -226 335 -282 234 -93 502
-68 715 66 l43 27 4 -22 c64 -323 165 -527 365 -738 33 -36 61 -66 61 -67 0
-2 -37 -3 -83 -3 -167 0 -309 -60 -427 -179 -42 -42 -88 -99 -103 -127 -127
-240 -22 -496 204 -496 111 0 200 46 386 199 203 166 309 225 465 257 103 21
129 20 228 -8 47 -14 102 -28 123 -31 20 -4 37 -10 37 -13 0 -7 -152 -195
-193 -239 -26 -28 -32 -30 -60 -22 -78 22 -196 1 -301 -53 -38 -20 -93 -64
-147 -118 -69 -69 -94 -103 -131 -177 -98 -195 -86 -370 34 -478 26 -24 66
-49 88 -57 l39 -13 -59 -70 c-199 -233 -250 -375 -182 -506 43 -84 137 -139
238 -139 68 0 165 36 240 88 245 173 789 880 1252 1628 l112 180 94 26 c435
123 854 385 1109 697 30 36 71 50 147 51 71 0 151 -25 283 -89 156 -75 223
-95 300 -88 144 13 255 161 232 310 -17 114 -128 253 -247 311 -98 48 -241 67
-348 46 -25 -4 -46 -7 -48 -5 -2 2 8 40 22 85 85 269 81 598 -10 852 -119 330
-355 594 -696 778 l-77 41 15 34 c31 76 2 204 -59 252 -25 19 -25 22 -20 114
7 118 -7 194 -52 285 -60 122 -188 221 -332 259 -71 18 -230 19 -298 0z m280
-40 c240 -62 385 -269 360 -511 l-7 -61 -44 10 c-64 15 -141 -5 -193 -50 -44
-37 -81 -98 -81 -133 0 -24 10 -24 -130 -4 -135 19 -483 14 -614 -9 l-79 -14
7 101 c19 313 140 510 385 623 130 61 277 78 396 48z m332 -616 c56 -21 104
-81 116 -145 6 -32 -6 -101 -20 -114 -9 -10 -147 43 -137 52 3 4 -4 4 -17 1
-15 -4 -20 -3 -15 5 4 8 2 10 -7 6 -8 -3 -39 1 -68 10 -30 8 -67 17 -82 21
-26 5 -28 9 -22 33 25 106 149 170 252 131z m-377 -184 c189 -31 343 -79 509
-157 95 -44 292 -165 306 -188 7 -11 -35 -30 -152 -70 -158 -54 -230 -65 -443
-65 -178 1 -204 3 -302 28 -148 37 -282 88 -416 158 -76 40 -114 55 -116 47
-63 -206 -111 -310 -201 -430 -178 -237 -473 -435 -815 -547 -101 -33 -267
-71 -312 -71 -26 0 -27 2 -17 27 19 51 38 159 43 248 5 83 7 90 28 96 67 18
136 78 162 141 9 21 16 66 16 101 0 54 -5 71 -33 118 l-33 55 55 44 c152 125
406 267 616 345 172 64 403 116 620 139 81 8 393 -4 485 -19z m-2419 -267 c94
-35 155 -73 227 -142 87 -83 89 -88 54 -134 -60 -76 -69 -166 -24 -252 33 -65
85 -109 149 -125 l48 -12 -1 -99 c-2 -137 -34 -255 -110 -406 -55 -110 -109
-183 -207 -285 -216 -224 -464 -327 -706 -293 -151 21 -318 94 -418 184 -54
49 -110 123 -100 133 4 3 32 -4 63 -16 162 -62 288 23 288 194 0 58 -9 96 -52
220 -67 198 -76 249 -70 398 8 192 61 326 180 453 91 97 231 176 363 204 75
17 243 5 316 -22z m1874 -49 c140 -95 414 -187 613 -206 34 -3 62 -9 62 -14 0
-4 -9 -45 -21 -91 -30 -121 -37 -352 -15 -489 77 -465 378 -820 710 -837 51
-3 112 1 145 8 82 18 183 74 252 141 67 65 67 66 7 -86 -172 -438 -563 -826
-1054 -1045 -500 -222 -1065 -260 -1543 -104 -88 29 -351 146 -351 156 0 2 54
1 119 -1 337 -10 644 105 863 322 350 347 393 867 105 1291 -72 106 -210 240
-327 317 l-24 15 83 79 c46 44 109 114 141 157 70 93 150 248 175 341 10 37
21 67 24 67 3 0 20 -9 36 -21z m-1360 -80 c49 -12 112 -60 101 -77 -4 -8 -19
-5 -49 8 -49 23 -126 25 -179 6 -32 -12 -39 -11 -49 1 -16 19 4 40 57 58 48
17 64 18 119 4z m2856 -76 c183 -188 290 -393 340 -648 23 -117 27 -318 8
-445 -10 -72 -17 -88 -56 -141 -123 -163 -305 -242 -486 -209 l-71 13 60 21
c85 31 123 57 192 131 107 114 162 262 162 440 0 161 -41 289 -134 419 -118
166 -280 256 -457 256 -139 0 -247 -47 -341 -148 l-54 -59 8 71 c8 74 23 149
39 202 l10 31 117 6 c187 10 407 65 529 131 16 8 33 15 39 16 6 0 49 -39 95
-87z m-2784 -59 c56 -46 78 -89 77 -154 -1 -48 -25 -120 -40 -120 -3 0 -2 5 2
12 4 7 3 8 -5 4 -6 -4 -9 -12 -5 -17 8 -14 -17 -41 -32 -35 -8 3 -13 0 -11 -7
1 -7 -8 -12 -20 -11 -12 0 -20 -3 -17 -7 9 -15 -84 -21 -123 -9 -85 28 -133
93 -133 183 0 126 76 200 202 194 57 -2 72 -7 105 -33z m863 -471 c79 -52 248
-225 305 -311 61 -93 131 -272 150 -381 55 -316 -42 -618 -272 -846 -222 -220
-570 -338 -904 -306 -139 13 -139 13 -266 123 -226 197 -378 462 -428 746
l-15 87 52 44 c133 113 247 257 316 402 l47 98 55 6 c254 29 591 163 815 324
39 27 75 50 80 50 6 1 35 -15 65 -36z m1388 -179 c145 -60 191 -278 80 -381
-29 -28 -70 -43 -113 -43 -66 0 -83 16 -141 134 -70 142 -73 163 -40 220 44
75 133 104 214 70z m1085 -715 c203 -31 367 -189 367 -354 0 -157 -124 -258
-276 -225 -27 6 -112 41 -189 79 -168 82 -209 94 -306 89 l-75 -3 63 93 c34
51 85 140 113 198 28 58 58 108 66 111 16 6 106 20 142 22 13 0 56 -4 95 -10z
m-3420 -917 c41 -38 195 -132 292 -179 l97 -47 -63 -13 c-152 -30 -254 -88
-474 -267 -194 -158 -305 -206 -415 -176 -87 23 -160 131 -160 234 1 148 137
341 293 415 102 49 167 61 295 57 96 -3 116 -6 135 -24z m1592 -341 c-3 -6
-11 -8 -17 -5 -7 4 -8 2 -4 -5 4 -6 -15 -49 -44 -95 l-50 -84 -68 -9 c-103
-12 -417 -9 -512 5 -79 12 -210 41 -219 48 -7 6 72 94 80 88 5 -3 6 1 4 9 -3
7 3 21 13 30 16 15 28 16 88 8 195 -27 461 -22 659 13 75 13 81 13 70 -3z
m-1111 -295 c68 -21 115 -61 143 -123 23 -49 25 -65 21 -146 -3 -67 -11 -108
-29 -152 l-25 -60 -74 3 c-154 6 -342 72 -476 167 -77 55 -77 54 30 160 76 75
159 125 247 149 70 19 105 19 163 2z m294 -243 c15 -3 125 -9 245 -12 l218 -6
-62 -89 -62 -88 -196 5 c-222 7 -256 12 -245 36 3 9 11 51 17 93 12 85 6 80
85 61z m180 -228 c72 0 132 -3 132 -6 0 -15 -260 -367 -392 -531 l-79 -98 -88
0 c-92 0 -226 20 -321 47 -49 14 -177 67 -188 78 -2 2 19 31 48 64 50 58 54
60 122 71 94 16 212 77 290 148 58 53 149 178 163 223 6 19 12 19 93 12 48 -4
147 -8 220 -8z m-692 -100 c48 -14 90 -28 93 -31 7 -7 -54 -60 -94 -81 -84
-45 -171 -4 -169 80 0 23 6 52 13 65 11 21 13 21 40 7 16 -8 69 -26 117 -40z
m-44 -645 c40 -11 86 -20 103 -20 58 0 60 -14 6 -62 -28 -25 -66 -53 -85 -62
-75 -35 -136 -9 -136 59 0 35 23 105 35 105 3 0 38 -9 77 -20z"/>
<path d="M4053 5433 c9 -2 25 -2 35 0 9 3 1 5 -18 5 -19 0 -27 -2 -17 -5z"/>
<path d="M4175 5390 c10 -11 20 -20 23 -20 3 0 -3 9 -13 20 -10 11 -20 20 -23
20 -3 0 3 -9 13 -20z"/>
<path d="M4222 5280 c0 -14 2 -19 5 -12 2 6 2 18 0 25 -3 6 -5 1 -5 -13z"/>
<path d="M3814 3305 c33 -83 46 -136 46 -185 0 -66 -18 -90 -69 -90 -40 0
-117 68 -152 135 -27 51 -42 59 -30 17 22 -74 75 -143 132 -172 53 -27 83 -25
121 9 31 28 33 33 33 98 0 54 -6 80 -28 124 -27 57 -70 108 -53 64z"/>
<path d="M1976 4667 c3 -10 9 -15 12 -12 3 3 0 11 -7 18 -10 9 -11 8 -5 -6z"/>
<path d="M2315 4014 c-236 -52 -442 -237 -521 -469 -35 -104 -44 -274 -20
-378 57 -245 235 -437 481 -519 60 -20 90 -23 210 -23 127 0 147 3 220 28 221
78 386 250 457 477 19 63 23 96 22 200 0 107 -4 136 -27 205 -37 113 -90 198
-177 285 -135 134 -282 199 -470 206 -71 2 -128 -1 -175 -12z m295 -584 c95
-49 145 -157 120 -260 -23 -95 -127 -180 -220 -180 -101 0 -198 72 -226 168
-57 195 146 365 326 272z"/>
</g>
</svg>
