<?xml version="1.0" standalone="no"?>
<!DOCTYPE svg PUBLIC "-//W3C//DTD SVG 20010904//EN"
 "http://www.w3.org/TR/2001/REC-SVG-20010904/DTD/svg10.dtd">
<svg version="1.0" xmlns="http://www.w3.org/2000/svg"
 width="962.000000pt" height="830.000000pt" viewBox="0 0 962.000000 830.000000"
 preserveAspectRatio="xMidYMid meet">

<g transform="translate(0.000000,830.000000) scale(0.100000,-0.100000)"
fill="#000000" stroke="none">
<path d="M3700 8104 c-118 -9 -430 -56 -520 -79 -446 -113 -853 -340 -1160
-645 -328 -327 -526 -704 -606 -1160 -21 -118 -29 -431 -15 -561 26 -230 104
-521 190 -711 16 -38 28 -68 26 -68 -3 0 -222 136 -487 301 -512 320 -608 373
-701 387 -154 24 -275 -57 -308 -203 -18 -83 -7 -235 25 -329 188 -555 704
-934 1442 -1061 59 -10 210 -19 422 -25 l331 -9 166 -126 c104 -80 163 -131
158 -138 -125 -217 -393 -516 -593 -663 -515 -376 -1087 -590 -1662 -620 -71
-4 -128 -10 -128 -13 1 -15 138 -85 266 -135 166 -64 250 -91 331 -105 84 -15
326 -41 384 -41 l49 0 -68 -103 c-138 -209 -289 -495 -356 -674 -35 -92 -67
-178 -70 -191 -6 -19 11 -11 111 49 65 39 150 93 188 119 39 27 120 78 180
115 61 37 138 87 173 111 35 24 65 44 67 44 2 0 -37 -64 -86 -142 -115 -185
-223 -403 -249 -503 -62 -242 15 -455 198 -546 59 -29 79 -34 164 -37 79 -4
110 0 170 18 121 37 231 100 336 195 57 51 230 295 369 520 l43 69 0 -129 c0
-186 33 -485 66 -602 32 -112 27 -115 111 52 114 226 508 915 517 903 2 -2 -1
-39 -5 -83 -17 -181 -40 -935 -29 -935 3 0 18 26 34 58 15 31 53 102 83 156
31 54 86 158 123 230 102 201 309 596 338 646 l27 45 7 -75 c38 -357 109 -612
246 -887 l50 -98 10 40 c6 22 14 58 18 80 14 83 77 316 131 487 l56 177 44
-44 c24 -24 69 -56 101 -72 50 -25 68 -28 152 -28 73 0 111 6 165 24 232 79
463 260 609 479 206 311 196 606 -29 827 -40 38 -100 86 -134 105 -101 57 -95
48 -67 105 53 112 61 217 22 300 -70 149 -213 187 -420 111 -116 -43 -153 -46
-165 -13 -5 12 -6 37 -3 56 l5 33 46 -6 c61 -8 376 11 511 30 512 74 963 265
1345 569 334 265 583 628 707 1027 18 60 36 107 39 105 4 -1 65 -55 135 -119
162 -148 269 -231 464 -361 181 -120 314 -193 495 -270 175 -74 262 -101 440
-138 143 -29 158 -31 320 -26 186 6 260 19 359 67 125 59 182 131 197 249 15
121 -19 188 -141 281 -179 136 -587 305 -1160 479 -184 56 -391 121 -460 145
-297 103 -498 176 -541 195 l-46 21 -7 118 c-15 268 -80 535 -200 818 -268
635 -999 1302 -1754 1603 -175 70 -630 169 -942 206 -130 16 -537 27 -650 19z
m790 -415 c104 -12 236 -55 315 -102 145 -85 271 -240 345 -424 36 -90 82
-243 75 -251 -1 -1 -67 23 -146 54 -218 86 -581 200 -799 253 -286 69 -579
128 -723 146 -66 8 -122 17 -124 19 -3 2 31 30 74 60 85 62 243 142 340 175
200 67 452 94 643 70z m-1752 -642 c67 -71 89 -224 45 -319 -42 -93 -158 -185
-270 -215 -221 -60 -463 40 -545 224 -29 66 -29 170 0 236 11 26 22 47 24 48
8 3 629 47 674 48 41 1 55 -3 72 -22z m552 -22 c355 -38 690 -98 955 -171 72
-20 213 -58 315 -85 223 -60 449 -135 667 -222 174 -70 513 -226 513 -236 0
-3 -143 -23 -318 -44 -174 -21 -533 -64 -797 -96 -264 -33 -482 -57 -484 -56
-6 7 31 147 62 233 16 46 27 85 24 88 -8 9 -78 -105 -127 -209 -52 -110 -80
-186 -80 -217 0 -24 17 -25 155 -5 55 8 112 15 127 15 l27 0 -29 -79 c-55
-151 -74 -267 -74 -456 0 -183 17 -288 69 -451 148 -453 535 -850 1006 -1029
290 -111 634 -124 901 -35 145 49 375 176 432 239 41 45 35 18 -8 -38 -361
-468 -941 -773 -1655 -868 -172 -23 -548 -23 -723 0 -845 112 -1572 496 -2078
1098 -174 208 -320 450 -413 689 -65 167 -66 174 -9 99 68 -89 131 -142 227
-190 151 -75 337 -86 543 -33 194 50 365 151 536 314 270 259 418 545 459 888
l12 100 80 -98 c44 -55 86 -99 92 -100 35 -1 124 268 137 416 l6 69 -76 -157
c-43 -87 -80 -158 -84 -158 -8 0 -673 794 -678 809 -1 5 8 7 20 5 13 -2 133
-15 268 -29z m2304 -891 c90 -266 -85 -554 -360 -593 -190 -27 -367 60 -467
230 -47 80 -74 246 -47 289 7 11 105 27 402 66 216 28 407 52 425 53 29 1 32
-3 47 -45z m-3953 -349 c40 -158 146 -344 256 -446 248 -232 580 -271 906
-108 169 85 326 220 426 367 23 34 44 62 47 62 13 0 -48 -91 -122 -184 -247
-308 -547 -475 -859 -479 -127 -2 -191 11 -292 59 -177 84 -307 271 -368 529
-24 104 -42 295 -28 309 4 4 9 0 11 -11 2 -10 12 -54 23 -98z m-1146 -404 c33
-15 190 -108 348 -206 l288 -178 -6 -31 c-12 -63 -138 -299 -210 -395 -40 -53
-82 -105 -94 -115 -21 -19 -22 -19 -78 20 -31 21 -98 80 -148 129 -228 225
-375 573 -316 748 25 73 99 83 216 28z m6536 -158 c-7 -232 -99 -552 -206
-713 -65 -98 -194 -232 -292 -302 -88 -64 -247 -146 -342 -178 -455 -151
-1018 1 -1412 381 -79 76 -76 80 11 14 169 -126 362 -211 570 -250 131 -26
409 -26 535 -1 278 55 505 173 714 372 131 125 217 239 291 389 57 116 120
300 120 353 0 14 3 22 7 19 3 -4 5 -42 4 -84z m-4101 -1704 c0 -5 -116 -163
-258 -351 -311 -414 -622 -842 -841 -1155 -162 -231 -163 -233 -239 -280 -90
-54 -273 -171 -456 -290 -80 -53 -126 -77 -122 -66 18 47 269 483 363 631 57
90 107 171 110 178 4 11 -10 14 -63 14 -38 0 -118 5 -179 10 -60 5 -171 14
-245 20 -143 11 -400 62 -365 73 11 3 58 9 105 12 114 9 351 51 500 90 357 92
672 244 906 437 165 137 439 418 569 585 l119 152 48 -26 c26 -14 48 -30 48
-34z m2023 -639 c52 -41 53 -120 4 -216 l-26 -52 -97 29 c-54 16 -137 36 -186
45 -97 18 -95 16 -82 95 6 35 8 36 73 51 36 9 98 27 136 42 86 32 143 33 178
6z m-548 -912 c-62 -81 -126 -199 -156 -285 -10 -30 -24 -106 -30 -167 -11
-113 -41 -237 -129 -531 -27 -88 -55 -184 -62 -214 l-14 -53 -46 128 c-53 150
-71 222 -98 408 -11 74 -24 155 -30 180 -5 25 -15 101 -20 168 -6 68 -13 129
-15 136 -8 22 -74 -70 -147 -203 -93 -171 -323 -614 -374 -720 l-43 -90 5 130
c2 72 9 220 14 330 5 110 12 261 15 335 3 74 8 145 12 158 12 48 -16 16 -114
-131 -136 -202 -378 -614 -525 -890 l-37 -70 -5 34 c-16 106 -26 280 -26 475
l0 221 42 89 c23 49 72 159 109 244 l67 155 254 42 c455 77 1265 190 1366 192
l42 1 -55 -72z m899 -36 c3 -5 0 -27 -6 -50 l-10 -42 -194 0 c-128 0 -194 4
-194 10 0 6 9 29 20 50 l20 40 180 0 c98 0 181 -4 184 -8z m-70 -202 c-16 -30
-36 -52 -48 -55 -12 -2 -75 -6 -141 -10 -66 -3 -144 -8 -172 -11 -35 -4 -53
-3 -53 5 0 6 11 35 24 66 l25 55 196 0 196 0 -27 -50z m-88 -157 c-17 -43
-107 -165 -166 -223 -70 -70 -142 -116 -242 -159 -54 -22 -77 -26 -158 -25
-78 0 -103 4 -143 23 -93 45 -133 143 -108 263 21 103 1 95 253 103 123 4 293
13 378 20 85 7 163 13 174 14 13 1 16 -4 12 -16z m-3287 -159 c58 -8 110 -19
114 -23 4 -4 -7 -38 -24 -75 -23 -49 -35 -65 -48 -62 -23 7 -248 36 -299 39
l-43 2 43 68 43 67 54 0 c29 0 101 -7 160 -16z m-69 -195 c47 -7 89 -15 94
-20 12 -11 -36 -119 -53 -119 -21 0 -344 40 -358 45 -9 3 -2 22 20 60 l32 57
90 -6 c50 -3 128 -11 175 -17z m-75 -210 c161 -26 292 -63 380 -107 28 -13 52
-26 53 -27 2 -2 -16 -34 -41 -72 -90 -138 -257 -273 -399 -323 -145 -51 -270
-4 -335 124 -49 95 -39 245 26 391 l18 40 114 -7 c62 -4 145 -12 184 -19z"/>
<path d="M3375 5007 c-153 -51 -284 -183 -379 -380 -45 -93 -101 -243 -108
-287 -3 -22 21 -31 732 -260 l735 -237 3 28 c2 16 -6 76 -18 134 -62 308 -212
600 -404 790 -149 149 -279 215 -431 221 -58 3 -104 -1 -130 -9z m855 -834
c28 -73 62 -209 58 -227 -2 -10 -36 -3 -143 31 -77 23 -178 55 -223 69 l-84
26 27 28 c58 60 213 123 317 129 24 1 29 -5 48 -56z"/>
</g>
</svg>
