<?xml version="1.0" standalone="no"?>
<!DOCTYPE svg PUBLIC "-//W3C//DTD SVG 20010904//EN"
 "http://www.w3.org/TR/2001/REC-SVG-20010904/DTD/svg10.dtd">
<svg version="1.0" xmlns="http://www.w3.org/2000/svg"
 width="552.000000pt" height="552.000000pt" viewBox="0 0 552.000000 552.000000"
 preserveAspectRatio="xMidYMid meet">

<g transform="translate(0.000000,552.000000) scale(0.100000,-0.100000)"
fill="#000000" stroke="none">
<path d="M3775 4923 c-62 -93 -261 -301 -331 -347 l-41 -27 -94 25 c-155 40
-245 49 -440 44 l-179 -5 0 28 c0 15 9 71 20 124 23 110 23 115 11 115 -14 0
-102 -82 -131 -122 l-27 -37 -6 40 c-3 22 -8 44 -12 47 -20 20 -134 -153 -160
-241 -10 -36 -17 -42 -72 -62 -248 -94 -496 -259 -694 -462 -161 -166 -272
-322 -360 -508 -76 -160 -148 -402 -149 -497 0 -16 -4 -28 -8 -28 -13 0 -75
100 -152 250 -42 81 -94 165 -120 193 -152 170 -403 133 -498 -73 -33 -72 -41
-213 -18 -312 68 -292 331 -564 686 -709 44 -18 80 -36 80 -40 0 -13 -99 -128
-130 -151 -17 -12 -30 -25 -30 -29 0 -18 87 -113 151 -165 271 -218 653 -352
1014 -355 341 -2 606 30 813 100 51 17 95 31 96 31 2 0 6 -26 10 -57 4 -32 14
-84 22 -117 15 -58 15 -59 -10 -85 -14 -14 -37 -53 -53 -86 -36 -77 -44 -206
-18 -304 48 -186 188 -348 355 -412 70 -27 191 -36 259 -19 79 19 165 79 210
149 42 66 67 158 58 221 -3 22 -3 40 0 40 3 0 44 -29 92 -64 201 -149 446
-282 601 -326 104 -30 266 -37 347 -17 140 36 246 115 299 222 25 51 29 72 29
140 0 68 -4 89 -29 140 -71 145 -202 220 -681 394 -165 60 -334 124 -376 142
-122 55 -265 140 -342 204 -65 55 -181 191 -174 206 1 4 42 49 91 100 l90 94
85 0 c111 0 162 -24 291 -136 136 -118 209 -145 312 -115 101 29 159 111 166
232 10 174 -102 360 -261 438 -71 35 -189 59 -254 52 l-51 -6 35 98 c19 53 44
135 55 182 11 47 30 117 43 156 133 409 100 914 -90 1359 -70 162 -180 348
-242 408 l-29 27 -59 -87z m-175 -507 c41 -25 105 -70 141 -100 59 -48 72 -66
117 -158 66 -135 86 -215 85 -348 -1 -113 -21 -208 -66 -316 l-25 -59 -7 40
c-21 133 -59 220 -140 317 -213 259 -616 331 -940 169 -430 -215 -525 -728
-193 -1036 69 -64 62 -65 -72 -14 -153 58 -314 193 -398 332 -61 101 -61 93
-4 288 28 96 70 233 94 304 l43 130 100 67 c130 88 436 242 596 301 200 73
416 124 539 126 49 1 65 -4 130 -43z m397 -399 c302 -514 166 -1242 -332
-1765 -290 -305 -659 -502 -1075 -573 -112 -19 -376 -17 -485 5 -49 9 -93 20
-98 23 -5 3 8 13 30 23 45 20 99 78 124 134 105 238 -33 632 -318 907 -43 41
-100 90 -127 109 l-49 33 66 20 c37 11 67 25 67 32 0 16 -91 156 -113 174 -9
7 -17 10 -17 7 0 -11 51 -109 72 -139 11 -16 19 -29 17 -31 -8 -5 -424 -115
-426 -112 -8 7 61 158 117 258 l62 111 -21 71 c-11 39 -26 103 -32 141 -13 79
-17 335 -5 354 5 8 21 -7 49 -47 50 -71 94 -120 166 -185 l54 -47 126 123
c125 122 318 283 327 274 3 -3 -15 -67 -40 -143 -59 -185 -123 -409 -160 -566
-6 -27 -6 -27 -64 35 -59 65 -112 112 -97 86 26 -44 98 -139 128 -167 30 -29
35 -31 46 -18 7 9 21 46 30 83 l17 67 48 -73 c135 -210 338 -343 594 -392 103
-19 347 -6 457 25 228 64 396 158 548 309 133 132 227 291 268 457 30 120 23
322 -14 425 -13 39 -28 79 -32 90 -12 36 43 -35 92 -118z m-593 -435 c81 -44
126 -121 126 -217 0 -134 -96 -238 -234 -252 -136 -14 -259 84 -273 219 -21
209 194 350 381 250z m-2683 -87 c69 -35 116 -97 199 -256 41 -79 98 -176 126
-215 l52 -72 4 -158 c4 -118 11 -183 28 -253 l22 -94 -21 -44 c-11 -23 -26
-43 -32 -43 -19 0 -160 60 -228 97 -348 189 -578 544 -530 817 35 202 213 305
380 221z m997 -654 c44 -33 82 -64 86 -69 3 -5 -20 -12 -52 -15 -157 -17 -279
-111 -319 -246 -91 -314 197 -676 572 -718 l70 -8 -54 -28 c-30 -15 -66 -27
-79 -27 -58 0 -266 106 -381 194 -105 81 -241 247 -301 366 -32 63 -33 68 -27
155 7 97 26 201 57 306 l20 66 147 41 c82 22 155 41 165 41 9 1 52 -26 96 -58z
m2524 -102 c176 -38 316 -185 348 -367 11 -59 10 -76 -5 -128 -37 -129 -162
-189 -281 -135 -23 10 -76 51 -120 90 -43 40 -101 85 -129 101 -58 33 -151 60
-207 60 l-38 0 49 68 c57 79 119 180 157 254 15 29 32 56 38 60 17 12 128 9
188 -3z m-2297 -353 c58 -24 100 -63 131 -118 39 -72 41 -166 4 -221 -26 -39
-90 -77 -129 -77 -118 0 -241 133 -241 260 0 49 38 120 79 147 40 27 104 30
156 9z m1665 -370 c0 -2 -24 -12 -52 -21 -155 -51 -342 -190 -453 -337 l-44
-59 -8 28 c-4 15 -7 55 -8 87 l0 59 50 20 c104 42 383 224 440 287 17 19 18
18 46 -20 16 -22 29 -42 29 -44z m324 -260 l48 -28 -73 -25 c-103 -34 -242
-101 -323 -155 l-68 -46 -61 28 c-34 15 -71 31 -82 35 -18 6 -16 10 20 41 113
99 235 171 355 212 l55 19 40 -27 c22 -14 62 -39 89 -54z m216 -100 c58 -24
177 -69 265 -100 88 -31 180 -64 204 -73 l44 -16 -80 -41 c-99 -52 -168 -109
-229 -189 -57 -75 -128 -221 -145 -299 -7 -32 -15 -58 -19 -58 -13 0 -229 146
-307 207 -59 47 -84 74 -88 95 -11 47 -101 172 -167 233 -34 30 -65 55 -70 55
-40 0 66 77 182 132 98 46 241 97 275 98 17 0 78 -20 135 -44z m-790 -128 c52
-15 130 -50 130 -57 0 -3 -24 -12 -52 -19 -166 -38 -313 -160 -391 -323 l-45
-93 -16 53 c-53 178 -11 342 105 414 71 44 173 53 269 25z m26 -289 c17 -46
17 -143 0 -182 -19 -46 -58 -78 -103 -84 -42 -5 -108 9 -136 30 -17 12 -17 15
9 62 32 58 187 219 205 213 7 -2 18 -20 25 -39z m1260 -64 c31 -65 31 -128 1
-186 -31 -58 -106 -99 -181 -99 -80 0 -97 7 -90 39 15 60 98 202 156 266 70
76 68 76 114 -20z"/>
<path d="M2500 2627 c0 -4 14 -26 31 -50 64 -87 75 -152 34 -192 -26 -27 -72
-33 -122 -15 l-28 10 24 -20 c16 -14 38 -20 71 -20 127 0 145 127 35 247 -24
27 -44 45 -45 40z"/>
</g>
</svg>
