<?xml version="1.0" encoding="UTF-8"?>
<!DOCTYPE svg PUBLIC "-//W3C//DTD SVG 1.1//EN" "http://www.w3.org/Graphics/SVG/1.1/DTD/svg11.dtd">
<svg xmlns="http://www.w3.org/2000/svg" version="1.1" width="1920px" height="1080px" style="shape-rendering:geometricPrecision; text-rendering:geometricPrecision; image-rendering:optimizeQuality; fill-rule:evenodd; clip-rule:evenodd" xmlns:xlink="http://www.w3.org/1999/xlink">
<g><path style="opacity:0.987" fill="#ff6584" d="M 1605.5,-0.5 C 1625.5,-0.5 1645.5,-0.5 1665.5,-0.5C 1710.12,4.53452 1749.62,21.5345 1784,50.5C 1815.89,81.6622 1828.39,118.996 1821.5,162.5C 1820.5,162.5 1819.5,162.5 1818.5,162.5C 1817.91,169.087 1816.41,175.42 1814,181.5C 1806,197.959 1795.16,212.459 1781.5,225C 1739.24,259.658 1690.57,276.158 1635.5,274.5C 1595.82,275.349 1558.49,266.849 1523.5,249C 1503.45,237.417 1485.95,222.917 1471,205.5C 1450.33,177.231 1443.5,145.897 1450.5,111.5C 1452.58,103.709 1454.92,96.0427 1457.5,88.5C 1458.5,88.5 1459.5,88.5 1460.5,88.5C 1460.21,86.712 1460.55,85.0453 1461.5,83.5C 1464.7,78.2055 1467.7,72.8722 1470.5,67.5C 1471.5,67.5 1472.5,67.5 1473.5,67.5C 1476,62.9259 1479,58.5925 1482.5,54.5C 1517.41,22.5241 1558.41,4.19079 1605.5,-0.5 Z"/></g>
<g><path style="opacity:0.997" fill="#9de787" d="M 876.5,405.5 C 875.791,406.404 874.791,406.737 873.5,406.5C 873.279,408.664 872.279,410.33 870.5,411.5C 853.94,422.571 837.274,433.405 820.5,444C 792.794,458.516 763.794,469.849 733.5,478C 732.449,479.385 731.116,480.385 729.5,481C 720.326,483.481 710.993,485.147 701.5,486C 692.99,488.386 684.323,490.386 675.5,492C 629.967,497.881 584.3,499.047 538.5,495.5C 538.5,495.167 538.5,494.833 538.5,494.5C 537.051,449.851 536.218,405.185 536,360.5C 535.821,356.975 535.321,353.641 534.5,350.5C 534.5,348.167 534.5,345.833 534.5,343.5C 534.5,328.5 534.5,313.5 534.5,298.5C 533.167,298.5 531.833,298.5 530.5,298.5C 530.5,305.167 530.5,311.833 530.5,318.5C 530.5,323.167 530.5,327.833 530.5,332.5C 528.668,385.661 527.335,438.994 526.5,492.5C 525.833,492.5 525.167,492.5 524.5,492.5C 507.216,489.728 489.882,486.562 472.5,483C 463.717,479.74 454.717,477.074 445.5,475C 432.304,470.485 419.47,464.985 407,458.5C 402.687,458.356 399.187,456.689 396.5,453.5C 383.457,448.814 371.457,442.314 360.5,434C 332.705,417.994 308.205,397.828 287,373.5C 280.655,366.157 274.322,358.824 268,351.5C 264.49,346.115 261.657,340.448 259.5,334.5C 258.5,334.5 257.5,334.5 256.5,334.5C 252.696,324.334 247.863,314.667 242,305.5C 241.063,299.395 239.063,293.728 236,288.5C 232.722,274.552 229.722,260.552 227,246.5C 226.167,228.824 226.334,211.157 227.5,193.5C 229.012,184.093 230.845,174.76 233,165.5C 236.468,157.269 239.468,148.936 242,140.5C 245.07,133.765 248.57,127.265 252.5,121C 251.423,119.457 250.089,119.457 248.5,121C 243.866,124.06 239.532,127.56 235.5,131.5C 227.213,142.123 218.547,152.456 209.5,162.5C 208.675,163.386 207.675,163.719 206.5,163.5C 202.571,171.981 197.738,179.981 192,187.5C 189.276,194.658 185.61,201.325 181,207.5C 177.897,217.042 174.23,226.375 170,235.5C 165.231,252.562 162.397,269.895 161.5,287.5C 161.083,290.159 160.083,292.492 158.5,294.5C 157.833,294.5 157.167,294.5 156.5,294.5C 156.857,274.5 159.691,254.833 165,235.5C 176.612,202.285 194.112,172.285 217.5,145.5C 247.742,113.363 282.742,87.5297 322.5,68C 398.713,32.6937 479.046,17.6937 563.5,23C 636.993,27.443 705.659,47.943 769.5,84.5C 793.942,100.112 816.442,118.112 837,138.5C 840.405,142.195 843.238,146.195 845.5,150.5C 847.143,150.48 848.476,151.147 849.5,152.5C 852.98,156.955 855.98,161.622 858.5,166.5C 859.5,166.5 860.5,166.5 861.5,166.5C 865.132,173.531 869.299,180.197 874,186.5C 889.052,212.581 898.885,240.581 903.5,270.5C 909.514,318.735 900.514,363.735 876.5,405.5 Z"/></g>
<g><path style="opacity:0.867" fill="#403d56" d="M 988.5,113.5 C 992.384,113.424 996.05,114.09 999.5,115.5C 999.719,116.675 999.386,117.675 998.5,118.5C 990.709,122.791 983.042,127.291 975.5,132C 978.016,134.683 980.683,137.183 983.5,139.5C 985.552,141.796 986.552,144.463 986.5,147.5C 983.813,147.664 981.146,147.497 978.5,147C 962.584,142.181 946.584,137.681 930.5,133.5C 927.923,130.808 928.589,128.975 932.5,128C 943.149,127.02 953.816,126.187 964.5,125.5C 967.368,122.134 970.701,119.3 974.5,117C 979.572,116.429 984.239,115.262 988.5,113.5 Z"/></g>
<g><path style="opacity:1" fill="#7eba6c" d="M 524.5,492.5 C 524.5,508.833 524.5,525.167 524.5,541.5C 524.5,551.833 524.5,562.167 524.5,572.5C 512.472,572.666 500.472,572.166 488.5,571C 489.167,570.667 489.833,570.333 490.5,570C 479.828,569.411 469.162,568.745 458.5,568C 458.043,567.586 457.709,567.086 457.5,566.5C 448.349,563.879 439.016,562.545 429.5,562.5C 411.99,559.994 394.99,555.66 378.5,549.5C 376.575,548.068 374.575,546.568 372.5,545C 364.5,542.333 356.5,539.667 348.5,537C 340.541,532.257 332.208,528.257 323.5,525C 314.557,520.862 305.89,516.195 297.5,511C 294.19,507.503 290.19,505.17 285.5,504C 279.188,498.183 272.522,492.85 265.5,488C 261.218,485.613 257.051,483.113 253,480.5C 252.667,479.167 252.333,477.833 252,476.5C 203.324,436.886 173.491,385.886 162.5,323.5C 161.501,311.518 161.168,299.518 161.5,287.5C 162.397,269.895 165.231,252.562 170,235.5C 174.23,226.375 177.897,217.042 181,207.5C 185.61,201.325 189.276,194.658 192,187.5C 197.738,179.981 202.571,171.981 206.5,163.5C 207.675,163.719 208.675,163.386 209.5,162.5C 218.547,152.456 227.213,142.123 235.5,131.5C 239.532,127.56 243.866,124.06 248.5,121C 250.089,119.457 251.423,119.457 252.5,121C 248.57,127.265 245.07,133.765 242,140.5C 239.468,148.936 236.468,157.269 233,165.5C 230.845,174.76 229.012,184.093 227.5,193.5C 226.334,211.157 226.167,228.824 227,246.5C 229.722,260.552 232.722,274.552 236,288.5C 239.063,293.728 241.063,299.395 242,305.5C 247.863,314.667 252.696,324.334 256.5,334.5C 257.5,334.5 258.5,334.5 259.5,334.5C 261.657,340.448 264.49,346.115 268,351.5C 274.322,358.824 280.655,366.157 287,373.5C 308.205,397.828 332.705,417.994 360.5,434C 371.457,442.314 383.457,448.814 396.5,453.5C 399.187,456.689 402.687,458.356 407,458.5C 419.47,464.985 432.304,470.485 445.5,475C 454.717,477.074 463.717,479.74 472.5,483C 489.882,486.562 507.216,489.728 524.5,492.5 Z"/></g>
<g><path style="opacity:0.889" fill="#3f3d56" d="M 1405.5,314.5 C 1405.03,313.094 1404.03,312.427 1402.5,312.5C 1398.81,312.219 1395.15,311.719 1391.5,311C 1378.76,306.586 1365.76,303.086 1352.5,300.5C 1349.46,300.129 1347.8,298.462 1347.5,295.5C 1359.62,292.572 1371.95,291.905 1384.5,293.5C 1387.56,288.297 1392.06,284.631 1398,282.5C 1405.83,281.246 1413.66,281.246 1421.5,282.5C 1413.92,287.873 1406.09,292.873 1398,297.5C 1397.25,298.635 1397.42,299.635 1398.5,300.5C 1401.97,304.104 1405.3,307.937 1408.5,312C 1407.92,313.417 1406.92,314.25 1405.5,314.5 Z"/></g>
<g><path style="opacity:0.986" fill="#e6e6e5" d="M 156.5,294.5 C 157.334,307.139 158.501,319.805 160,332.5C 160.232,333.737 160.732,334.737 161.5,335.5C 162.908,339.686 163.575,344.019 163.5,348.5C 167.411,360.074 170.911,371.741 174,383.5C 174.899,385.516 176.233,387.183 178,388.5C 180.517,395.257 183.684,401.591 187.5,407.5C 206.156,435.803 228.489,461.303 254.5,484C 292.057,512.913 333.39,534.747 378.5,549.5C 394.99,555.66 411.99,559.994 429.5,562.5C 429.918,563.222 430.584,563.722 431.5,564C 440.48,564.469 449.146,566.136 457.5,569C 468.236,569.574 478.903,570.74 489.5,572.5C 501.155,573.269 512.822,573.602 524.5,573.5C 524.666,581.174 524.5,588.841 524,596.5C 522.882,598.765 522.049,601.099 521.5,603.5C 478.639,645.605 427.639,673.105 368.5,686C 343.341,691.235 318.007,694.068 292.5,694.5C 292.125,697.397 292.625,700.063 294,702.5C 294.333,732.833 294.667,763.167 295,793.5C 296.121,798.689 296.955,804.022 297.5,809.5C 305.848,804.996 314.515,801.162 323.5,798C 326.757,796.957 330.09,796.457 333.5,796.5C 335.151,800.315 337.151,803.982 339.5,807.5C 339.291,808.086 338.957,808.586 338.5,809C 324.792,814.403 311.125,819.903 297.5,825.5C 297.167,835.333 296.833,845.167 296.5,855C 297.901,895.155 298.734,935.321 299,975.5C 300.044,976.623 300.71,977.956 301,979.5C 301.5,1005.5 301.667,1031.5 301.5,1057.5C 301.196,1058.15 300.863,1058.82 300.5,1059.5C 296.878,1060.33 293.211,1060.83 289.5,1061C 284.089,1062.89 279.422,1065.73 275.5,1069.5C 275.5,1071.17 275.5,1072.83 275.5,1074.5C 272.941,1074.8 270.607,1074.47 268.5,1073.5C 269.944,1029.31 270.777,984.978 271,940.5C 271.419,939.328 272.085,938.328 273,937.5C 274.588,856.499 276.088,775.499 277.5,694.5C 241.382,693.767 206.049,688.267 171.5,678C 141.73,668.067 113.73,654.567 87.5,637.5C 66.0548,622.065 47.2215,604.065 31,583.5C 14.2678,558.757 3.76782,531.757 -0.5,502.5C -0.5,489.5 -0.5,476.5 -0.5,463.5C 0.67844,454.106 2.51177,444.772 5,435.5C 5.41395,435.043 5.91395,434.709 6.5,434.5C 8.79889,425.504 11.9656,416.837 16,408.5C 21.3221,400.532 26.1555,392.199 30.5,383.5C 31.5,383.5 32.5,383.5 33.5,383.5C 33.9668,381.289 34.9668,379.289 36.5,377.5C 68.6142,338.378 108.614,310.712 156.5,294.5 Z"/></g>
<g><path style="opacity:1" fill="#88c17b" d="M 534.5,343.5 C 534.167,343.5 533.833,343.5 533.5,343.5C 533.5,338.833 533.5,334.167 533.5,329.5C 533.832,319.478 533.499,309.478 532.5,299.5C 531.833,305.988 531.167,312.321 530.5,318.5C 530.5,311.833 530.5,305.167 530.5,298.5C 531.833,298.5 533.167,298.5 534.5,298.5C 534.5,313.5 534.5,328.5 534.5,343.5 Z"/></g>
<g><path style="opacity:0.005" fill="#0000ff" d="M 1402.5,312.5 C 1404.03,312.427 1405.03,313.094 1405.5,314.5C 1403.97,314.573 1402.97,313.906 1402.5,312.5 Z"/></g>
<g><path style="opacity:1" fill="#66836a" d="M 533.5,329.5 C 532.691,327.708 532.191,325.708 532,323.5C 531.831,335.674 531.331,347.674 530.5,359.5C 530.5,350.5 530.5,341.5 530.5,332.5C 530.5,327.833 530.5,323.167 530.5,318.5C 531.167,312.321 531.833,305.988 532.5,299.5C 533.499,309.478 533.832,319.478 533.5,329.5 Z"/></g>
<g><path style="opacity:1" fill="#c2e6b7" d="M 156.5,294.5 C 157.167,294.5 157.833,294.5 158.5,294.5C 159.131,308.146 160.131,321.812 161.5,335.5C 160.732,334.737 160.232,333.737 160,332.5C 158.501,319.805 157.334,307.139 156.5,294.5 Z"/></g>
<g><path style="opacity:0.988" fill="#e5e5e5" d="M 1051.5,1073.5 C 1051.5,1074.17 1051.17,1074.5 1050.5,1074.5C 1041.5,1074.5 1032.5,1074.5 1023.5,1074.5C 1022.51,1074.67 1021.84,1074.34 1021.5,1073.5C 1021.09,1069.95 1021.59,1066.62 1023,1063.5C 1024.67,955.69 1026.84,848.024 1029.5,740.5C 982.171,740.173 937.171,730.007 894.5,710C 882.688,703.929 871.355,697.095 860.5,689.5C 844.708,677.895 830.541,664.562 818,649.5C 813.574,643.953 810.074,637.953 807.5,631.5C 806.5,631.5 805.5,631.5 804.5,631.5C 800.625,621.927 796.458,612.594 792,603.5C 783.336,571.471 783.336,539.471 792,507.5C 794.658,503.444 796.825,499.11 798.5,494.5C 799.167,492.833 799.833,491.167 800.5,489.5C 802.735,488.772 804.568,487.439 806,485.5C 807.561,482.217 809.727,479.383 812.5,477C 818.347,471.489 824.514,466.323 831,461.5C 832,459.833 833,458.167 834,456.5C 843.822,446.525 852.655,435.858 860.5,424.5C 863.545,421.782 866.545,419.116 869.5,416.5C 872.06,414.727 874.393,412.727 876.5,410.5C 936.066,377.725 1000.07,364.558 1068.5,371C 1120.08,375.495 1167.41,391.829 1210.5,420C 1219.71,428.051 1229.05,435.884 1238.5,443.5C 1241.34,446.592 1243.67,449.925 1245.5,453.5C 1247.14,453.48 1248.48,454.147 1249.5,455.5C 1253.03,459.905 1256.03,464.572 1258.5,469.5C 1259.5,469.5 1260.5,469.5 1261.5,469.5C 1264.31,475.259 1267.31,480.926 1270.5,486.5C 1271.45,488.045 1271.79,489.712 1271.5,491.5C 1272.5,491.5 1273.5,491.5 1274.5,491.5C 1276.95,498.321 1279.28,505.321 1281.5,512.5C 1283.09,518.443 1284.42,524.443 1285.5,530.5C 1286.09,530.709 1286.59,531.043 1287,531.5C 1287.33,538.5 1287.67,545.5 1288,552.5C 1290,554.5 1290,556.5 1288,558.5C 1286.93,579.483 1282.27,599.817 1274,619.5C 1272.23,620.817 1270.9,622.484 1270,624.5C 1267.15,630.203 1264.31,635.87 1261.5,641.5C 1260.5,641.5 1259.5,641.5 1258.5,641.5C 1256.31,646.619 1253.31,651.285 1249.5,655.5C 1248.48,656.853 1247.14,657.52 1245.5,657.5C 1243.67,661.075 1241.34,664.408 1238.5,667.5C 1209.08,694.5 1175.25,714.167 1137,726.5C 1106.98,735.925 1076.15,740.592 1044.5,740.5C 1044.33,764.502 1044.5,788.502 1045,812.5C 1046.19,814.623 1046.86,816.957 1047,819.5C 1047.17,826.856 1047.67,834.189 1048.5,841.5C 1050.67,839.914 1053,838.58 1055.5,837.5C 1063.06,835.444 1070.39,832.778 1077.5,829.5C 1081.19,833.039 1083.19,837.373 1083.5,842.5C 1071.18,846.051 1059.18,850.384 1047.5,855.5C 1049.03,928.223 1050.36,1000.89 1051.5,1073.5 Z"/></g>
<g><path style="opacity:1" fill="#cfe6c7" d="M 163.5,348.5 C 167.514,355.628 170.014,363.295 171,371.5C 176.806,383.464 182.306,395.464 187.5,407.5C 183.684,401.591 180.517,395.257 178,388.5C 176.233,387.183 174.899,385.516 174,383.5C 170.911,371.741 167.411,360.074 163.5,348.5 Z"/></g>
<g><path style="opacity:1" fill="#6a8b6c" d="M 533.5,343.5 C 533.833,343.5 534.167,343.5 534.5,343.5C 534.5,345.833 534.5,348.167 534.5,350.5C 535.004,373.164 535.338,395.83 535.5,418.5C 534.632,402.998 533.965,387.332 533.5,371.5C 533.5,362.167 533.5,352.833 533.5,343.5 Z"/></g>
<g><path style="opacity:0.838" fill="#403d56" d="M 533.5,371.5 C 533.965,387.332 534.632,402.998 535.5,418.5C 535.5,431.167 535.5,443.833 535.5,456.5C 535.333,472.837 535.5,489.17 536,505.5C 536.727,528.498 537.893,551.165 539.5,573.5C 540.401,574.29 541.068,575.29 541.5,576.5C 543.051,619.079 543.885,661.746 544,704.5C 545.135,711.69 545.969,719.023 546.5,726.5C 559.174,721.395 571.841,716.229 584.5,711C 587.894,710.248 591.227,710.415 594.5,711.5C 596.595,715.365 598.928,719.032 601.5,722.5C 600.833,724.5 599.5,725.833 597.5,726.5C 580.109,732.947 562.775,739.28 545.5,745.5C 548.459,853.219 550.459,961.219 551.5,1069.5C 551.5,1070.83 552.167,1071.5 553.5,1071.5C 560.133,1072.83 567.133,1073.5 574.5,1073.5C 581.5,1073.33 588.5,1073.17 595.5,1073C 589.922,1068.75 584.089,1064.92 578,1061.5C 577.316,1060.22 577.483,1059.05 578.5,1058C 587.011,1056.75 595.011,1058.25 602.5,1062.5C 605.398,1065.89 608.064,1069.39 610.5,1073C 636.498,1073.5 662.498,1073.67 688.5,1073.5C 698.659,1074.61 708.659,1074.61 718.5,1073.5C 759.5,1073.5 800.5,1073.5 841.5,1073.5C 850.008,1074.6 858.675,1074.6 867.5,1073.5C 900.835,1073.67 934.168,1073.5 967.5,1073C 964.147,1071.32 961.147,1069.16 958.5,1066.5C 955.316,1065.4 952.316,1064.07 949.5,1062.5C 949.286,1060.86 949.62,1059.36 950.5,1058C 954.5,1057.33 958.5,1057.33 962.5,1058C 966.204,1059.21 969.87,1060.55 973.5,1062C 976.35,1065.61 979.017,1069.28 981.5,1073C 994.829,1073.5 1008.16,1073.67 1021.5,1073.5C 1021.84,1074.34 1022.51,1074.67 1023.5,1074.5C 1023.61,1075.12 1023.94,1075.62 1024.5,1076C 1032.83,1076.67 1041.17,1076.67 1049.5,1076C 1050.06,1075.62 1050.39,1075.12 1050.5,1074.5C 1051.17,1074.5 1051.5,1074.17 1051.5,1073.5C 1063.83,1073.5 1076.17,1073.5 1088.5,1073.5C 1088.5,1067.83 1088.5,1062.17 1088.5,1056.5C 1091.17,1056.5 1093.83,1056.5 1096.5,1056.5C 1096.5,1062.17 1096.5,1067.83 1096.5,1073.5C 1136.83,1073.5 1177.17,1073.5 1217.5,1073.5C 1221.97,1063.24 1229.97,1057.91 1241.5,1057.5C 1244.72,1057.35 1247.72,1058.01 1250.5,1059.5C 1244.38,1064.86 1237.71,1069.36 1230.5,1073C 1291.83,1073.67 1353.17,1073.67 1414.5,1073C 1410.13,1068.82 1405.13,1065.65 1399.5,1063.5C 1397.9,1061.82 1397.23,1059.82 1397.5,1057.5C 1405.68,1056.55 1413.35,1058.05 1420.5,1062C 1424.36,1064.78 1427.02,1068.45 1428.5,1073C 1444.17,1073.67 1459.83,1073.67 1475.5,1073C 1477.8,1068.79 1480.8,1065.12 1484.5,1062C 1491.65,1058.05 1499.32,1056.55 1507.5,1057.5C 1506.96,1062.7 1503.96,1065.7 1498.5,1066.5C 1496.02,1068.91 1493.35,1071.07 1490.5,1073C 1503.5,1073.67 1516.5,1073.67 1529.5,1073C 1524.95,1069.94 1520.28,1067.11 1515.5,1064.5C 1514.55,1062.95 1514.21,1061.29 1514.5,1059.5C 1522.53,1058.92 1530.2,1060.26 1537.5,1063.5C 1538.84,1064.88 1540.18,1066.21 1541.5,1067.5C 1542.54,1065.6 1543.88,1063.93 1545.5,1062.5C 1549.01,1060.57 1552.68,1059.07 1556.5,1058C 1560.83,1057.33 1565.17,1057.33 1569.5,1058C 1570.38,1059.36 1570.71,1060.86 1570.5,1062.5C 1569.13,1062.34 1567.79,1062.51 1566.5,1063C 1562.11,1066.72 1557.45,1070.05 1552.5,1073C 1565.83,1073.67 1579.17,1073.67 1592.5,1073C 1594.98,1069.28 1597.65,1065.61 1600.5,1062C 1605.97,1059.67 1611.64,1058.17 1617.5,1057.5C 1619.5,1057.67 1621.5,1057.83 1623.5,1058C 1624.75,1059.49 1624.75,1060.99 1623.5,1062.5C 1617.45,1065.38 1611.79,1068.88 1606.5,1073C 1635.5,1073.5 1664.5,1073.67 1693.5,1073.5C 1705.78,1075.9 1706.78,1074.4 1696.5,1069C 1695.25,1068.26 1694.25,1068.43 1693.5,1069.5C 1689.14,1066.42 1684.8,1063.26 1680.5,1060C 1680.64,1059.23 1680.98,1058.56 1681.5,1058C 1685.49,1057.5 1689.49,1057.33 1693.5,1057.5C 1693.41,1058.5 1693.75,1059.33 1694.5,1060C 1702.73,1061.9 1708.07,1066.9 1710.5,1075C 1713.82,1075.78 1716.82,1075.28 1719.5,1073.5C 1786.17,1073.5 1852.83,1073.5 1919.5,1073.5C 1919.5,1075.5 1919.5,1077.5 1919.5,1079.5C 1279.5,1079.5 639.5,1079.5 -0.5,1079.5C -0.5,1077.5 -0.5,1075.5 -0.5,1073.5C 43.8333,1073.5 88.1667,1073.5 132.5,1073.5C 132.5,1066.83 132.5,1060.17 132.5,1053.5C 135.5,1053.5 138.5,1053.5 141.5,1053.5C 141.5,1060.17 141.5,1066.83 141.5,1073.5C 161.503,1073.67 181.503,1073.5 201.5,1073C 195.167,1069.72 189.167,1065.89 183.5,1061.5C 182.269,1060.35 182.269,1059.18 183.5,1058C 192.033,1056.41 199.867,1057.91 207,1062.5C 210.512,1065.52 213.012,1069.19 214.5,1073.5C 232.5,1073.5 250.5,1073.5 268.5,1073.5C 270.607,1074.47 272.941,1074.8 275.5,1074.5C 275.5,1072.83 275.5,1071.17 275.5,1069.5C 279.422,1065.73 284.089,1062.89 289.5,1061C 293.211,1060.83 296.878,1060.33 300.5,1059.5C 300.863,1058.82 301.196,1058.15 301.5,1057.5C 304.91,1057.38 306.244,1059.05 305.5,1062.5C 304.041,1062.43 302.708,1062.77 301.5,1063.5C 299.154,1062.32 296.821,1062.65 294.5,1064.5C 290.596,1067.75 286.596,1070.92 282.5,1074C 289.55,1074.76 296.55,1074.59 303.5,1073.5C 321.5,1073.5 339.5,1073.5 357.5,1073.5C 357.334,1067.49 357.501,1061.49 358,1055.5C 360.381,1054.56 362.881,1054.23 365.5,1054.5C 365.5,1060.83 365.5,1067.17 365.5,1073.5C 413.833,1073.5 462.167,1073.5 510.5,1073.5C 510.333,1049.83 510.5,1026.16 511,1002.5C 511.249,1001.38 511.749,1000.38 512.5,999.5C 515.876,867.504 518.876,735.504 521.5,603.5C 522.049,601.099 522.882,598.765 524,596.5C 524.5,588.841 524.666,581.174 524.5,573.5C 526.532,547.364 527.532,521.031 527.5,494.5C 528.205,483.31 529.038,471.977 530,460.5C 530.121,427.817 530.787,395.15 532,362.5C 532.181,365.695 532.681,368.695 533.5,371.5 Z"/></g>
<g><path style="opacity:1" fill="#4d575d" d="M 533.5,329.5 C 533.5,334.167 533.5,338.833 533.5,343.5C 533.5,352.833 533.5,362.167 533.5,371.5C 532.681,368.695 532.181,365.695 532,362.5C 530.787,395.15 530.121,427.817 530,460.5C 529.038,471.977 528.205,483.31 527.5,494.5C 527.5,493.833 527.5,493.167 527.5,492.5C 528.837,448.156 529.837,403.823 530.5,359.5C 531.331,347.674 531.831,335.674 532,323.5C 532.191,325.708 532.691,327.708 533.5,329.5 Z"/></g>
<g><path style="opacity:0.032" fill="#161c13" d="M 876.5,405.5 C 877.478,405.811 878.145,406.478 878.5,407.5C 877.388,408.265 876.721,409.265 876.5,410.5C 874.393,412.727 872.06,414.727 869.5,416.5C 869.366,414.708 869.699,413.042 870.5,411.5C 872.279,410.33 873.279,408.664 873.5,406.5C 874.791,406.737 875.791,406.404 876.5,405.5 Z"/></g>
<g><path style="opacity:1" fill="#82b678" d="M 534.5,350.5 C 535.321,353.641 535.821,356.975 536,360.5C 536.218,405.185 537.051,449.851 538.5,494.5C 537.894,481.805 536.894,469.139 535.5,456.5C 535.5,443.833 535.5,431.167 535.5,418.5C 535.338,395.83 535.004,373.164 534.5,350.5 Z"/></g>
<g><path style="opacity:1" fill="#9fde8b" d="M 161.5,287.5 C 161.168,299.518 161.501,311.518 162.5,323.5C 173.491,385.886 203.324,436.886 252,476.5C 252.333,477.833 252.667,479.167 253,480.5C 257.051,483.113 261.218,485.613 265.5,488C 272.522,492.85 279.188,498.183 285.5,504C 290.19,505.17 294.19,507.503 297.5,511C 305.89,516.195 314.557,520.862 323.5,525C 332.208,528.257 340.541,532.257 348.5,537C 356.5,539.667 364.5,542.333 372.5,545C 374.575,546.568 376.575,548.068 378.5,549.5C 333.39,534.747 292.057,512.913 254.5,484C 228.489,461.303 206.156,435.803 187.5,407.5C 182.306,395.464 176.806,383.464 171,371.5C 170.014,363.295 167.514,355.628 163.5,348.5C 163.575,344.019 162.908,339.686 161.5,335.5C 160.131,321.812 159.131,308.146 158.5,294.5C 160.083,292.492 161.083,290.159 161.5,287.5 Z"/></g>
<g><path style="opacity:0.999" fill="#7eba6c" d="M 870.5,411.5 C 869.699,413.042 869.366,414.708 869.5,416.5C 866.545,419.116 863.545,421.782 860.5,424.5C 852.655,435.858 843.822,446.525 834,456.5C 833,458.167 832,459.833 831,461.5C 824.514,466.323 818.347,471.489 812.5,477C 809.727,479.383 807.561,482.217 806,485.5C 804.568,487.439 802.735,488.772 800.5,489.5C 798.401,490.428 796.734,491.928 795.5,494C 794.207,494.49 792.873,494.657 791.5,494.5C 791.5,495.5 791.5,496.5 791.5,497.5C 789.409,497.318 787.409,497.652 785.5,498.5C 782.355,501.904 778.688,504.57 774.5,506.5C 773.295,507.577 772.628,508.91 772.5,510.5C 766.263,509.453 761.263,511.453 757.5,516.5C 755.085,517.305 752.751,518.305 750.5,519.5C 749.295,520.577 748.628,521.91 748.5,523.5C 743.592,525.221 738.592,526.554 733.5,527.5C 733.5,528.833 733.5,530.167 733.5,531.5C 720.288,538.387 706.622,544.22 692.5,549C 673.157,555.42 653.491,560.753 633.5,565C 621.771,567.19 610.104,569.19 598.5,571C 579.318,572.052 560.318,573.885 541.5,576.5C 541.068,575.29 540.401,574.29 539.5,573.5C 538.73,547.507 538.397,521.507 538.5,495.5C 584.3,499.047 629.967,497.881 675.5,492C 684.323,490.386 692.99,488.386 701.5,486C 710.993,485.147 720.326,483.481 729.5,481C 731.116,480.385 732.449,479.385 733.5,478C 763.794,469.849 792.794,458.516 820.5,444C 837.274,433.405 853.94,422.571 870.5,411.5 Z"/></g>
<g><path style="opacity:1" fill="#4d4b62" d="M 950.5,423.5 C 954.884,423.174 959.217,423.508 963.5,424.5C 957.712,430.607 950.712,434.773 942.5,437C 941.315,438.353 939.981,439.52 938.5,440.5C 942.777,443.273 946.61,446.607 950,450.5C 950.483,451.448 950.649,452.448 950.5,453.5C 933.847,449.337 917.181,445.17 900.5,441C 899.328,440.581 898.328,439.915 897.5,439C 899.5,438.333 901.5,437.667 903.5,437C 912.833,436.667 922.167,436.333 931.5,436C 934.002,433.495 936.669,431.162 939.5,429C 943.78,428.179 947.447,426.346 950.5,423.5 Z"/></g>
<g><path style="opacity:0.986" fill="#e6e6e6" d="M 1919.5,616.5 C 1919.5,627.5 1919.5,638.5 1919.5,649.5C 1918.33,657.512 1916.5,665.512 1914,673.5C 1909.54,682.401 1905.37,691.401 1901.5,700.5C 1900.5,700.5 1899.5,700.5 1898.5,700.5C 1896.01,706.819 1892.51,712.486 1888,717.5C 1868.61,738.217 1846.11,754.717 1820.5,767C 1786.51,782.029 1750.84,789.529 1713.5,789.5C 1713,817.908 1713.67,846.241 1715.5,874.5C 1722.81,872.878 1729.81,870.378 1736.5,867C 1738.81,866.503 1741.14,866.337 1743.5,866.5C 1744.28,869.403 1745.62,872.07 1747.5,874.5C 1747.02,875.478 1746.36,876.311 1745.5,877C 1735.59,880.292 1725.92,884.125 1716.5,888.5C 1716.17,898.667 1715.83,908.833 1715.5,919C 1716.84,970.501 1718.18,1022 1719.5,1073.5C 1716.82,1075.28 1713.82,1075.78 1710.5,1075C 1708.07,1066.9 1702.73,1061.9 1694.5,1060C 1693.75,1059.33 1693.41,1058.5 1693.5,1057.5C 1694.89,981.832 1696.39,906.166 1698,830.5C 1698.42,829.328 1699.09,828.328 1700,827.5C 1700.83,815.486 1700.67,803.486 1699.5,791.5C 1649.35,790.336 1603.02,776.669 1560.5,750.5C 1553.66,745.578 1547,740.411 1540.5,735C 1528.73,724.877 1518.56,713.377 1510,700.5C 1490.54,668.232 1485.54,633.565 1495,596.5C 1499.4,586.594 1503.9,576.594 1508.5,566.5C 1513.72,560.088 1518.55,553.421 1523,546.5C 1524.11,544.963 1525.61,544.297 1527.5,544.5C 1529.33,540.925 1531.66,537.592 1534.5,534.5C 1558.99,512.872 1586.83,496.872 1618,486.5C 1655.77,474.954 1694.6,471.121 1734.5,475C 1783.76,479.483 1828.1,496.65 1867.5,526.5C 1870.01,530.421 1873.35,533.421 1877.5,535.5C 1880.53,539.69 1884.03,543.357 1888,546.5C 1892.52,551.565 1896.02,557.232 1898.5,563.5C 1899.5,563.5 1900.5,563.5 1901.5,563.5C 1905.38,572.626 1909.55,581.626 1914,590.5C 1916.39,599.244 1918.22,607.911 1919.5,616.5 Z"/></g>
<g><path style="opacity:1" fill="#71966f" d="M 530.5,332.5 C 530.5,341.5 530.5,350.5 530.5,359.5C 529.837,403.823 528.837,448.156 527.5,492.5C 527.167,492.5 526.833,492.5 526.5,492.5C 527.335,438.994 528.668,385.661 530.5,332.5 Z"/></g>
<g><path style="opacity:0.082" fill="#273a22" d="M 800.5,489.5 C 799.833,491.167 799.167,492.833 798.5,494.5C 796.313,495.758 793.98,496.758 791.5,497.5C 791.5,496.5 791.5,495.5 791.5,494.5C 792.873,494.657 794.207,494.49 795.5,494C 796.734,491.928 798.401,490.428 800.5,489.5 Z"/></g>
<g><path style="opacity:0.043" fill="#2d3f27" d="M 791.5,497.5 C 790.525,499.193 789.192,500.693 787.5,502C 782.445,504.857 777.445,507.691 772.5,510.5C 772.628,508.91 773.295,507.577 774.5,506.5C 778.688,504.57 782.355,501.904 785.5,498.5C 787.409,497.652 789.409,497.318 791.5,497.5 Z"/></g>
<g><path style="opacity:0.827" fill="#537847" d="M 772.5,510.5 C 769.233,512.811 765.9,515.144 762.5,517.5C 761.264,518.246 759.93,518.579 758.5,518.5C 755.923,518.455 753.923,519.455 752.5,521.5C 751.817,523.176 750.483,523.843 748.5,523.5C 748.628,521.91 749.295,520.577 750.5,519.5C 752.751,518.305 755.085,517.305 757.5,516.5C 761.263,511.453 766.263,509.453 772.5,510.5 Z"/></g>
<g><path style="opacity:0.055" fill="#2b3320" d="M 758.5,518.5 C 757.089,520.539 755.089,521.539 752.5,521.5C 753.923,519.455 755.923,518.455 758.5,518.5 Z"/></g>
<g><path style="opacity:0.522" fill="#4d6d43" d="M 748.5,523.5 C 748.631,524.376 748.298,525.043 747.5,525.5C 742.886,527.702 738.219,529.702 733.5,531.5C 733.5,530.167 733.5,528.833 733.5,527.5C 738.592,526.554 743.592,525.221 748.5,523.5 Z"/></g>
<g><path style="opacity:1" fill="#6b9465" d="M 524.5,492.5 C 525.167,492.5 525.833,492.5 526.5,492.5C 526.808,509.03 526.141,525.363 524.5,541.5C 524.5,525.167 524.5,508.833 524.5,492.5 Z"/></g>
<g><path style="opacity:1" fill="#5b7460" d="M 526.5,492.5 C 526.833,492.5 527.167,492.5 527.5,492.5C 527.5,493.167 527.5,493.833 527.5,494.5C 527.532,521.031 526.532,547.364 524.5,573.5C 524.5,573.167 524.5,572.833 524.5,572.5C 524.5,562.167 524.5,551.833 524.5,541.5C 526.141,525.363 526.808,509.03 526.5,492.5 Z"/></g>
<g><path style="opacity:1" fill="#586e60" d="M 535.5,456.5 C 536.894,469.139 537.894,481.805 538.5,494.5C 538.5,494.833 538.5,495.167 538.5,495.5C 538.397,521.507 538.73,547.507 539.5,573.5C 537.893,551.165 536.727,528.498 536,505.5C 535.5,489.17 535.333,472.837 535.5,456.5 Z"/></g>
<g><path style="opacity:1" fill="#a1d491" d="M 429.5,562.5 C 439.016,562.545 448.349,563.879 457.5,566.5C 457.709,567.086 458.043,567.586 458.5,568C 469.162,568.745 479.828,569.411 490.5,570C 489.833,570.333 489.167,570.667 488.5,571C 500.472,572.166 512.472,572.666 524.5,572.5C 524.5,572.833 524.5,573.167 524.5,573.5C 512.822,573.602 501.155,573.269 489.5,572.5C 478.903,570.74 468.236,569.574 457.5,569C 449.146,566.136 440.48,564.469 431.5,564C 430.584,563.722 429.918,563.222 429.5,562.5 Z"/></g>
<g><path style="opacity:0.949" fill="#302e41" d="M 755.5,714.5 C 748.651,711.782 741.651,711.115 734.5,712.5C 728.013,711.672 721.346,711.172 714.5,711C 713.376,710.751 712.376,710.251 711.5,709.5C 710.209,703.505 709.543,697.339 709.5,691C 707.597,670.655 716.264,656.821 735.5,649.5C 752.966,644.601 769.966,645.768 786.5,653C 791.075,656.401 796.075,659.068 801.5,661C 806.047,664.381 809.713,668.547 812.5,673.5C 813.489,677.107 813.823,680.774 813.5,684.5C 809.833,684.5 806.167,684.5 802.5,684.5C 802.831,693.192 802.498,701.859 801.5,710.5C 791.863,711.143 782.196,711.81 772.5,712.5C 769.957,714.565 767.124,715.899 764,716.5C 761.239,715.582 758.406,714.916 755.5,714.5 Z"/></g>
<g><path style="opacity:1" fill="#7e636e" d="M 765.5,682.5 C 776.833,682.5 788.167,682.5 799.5,682.5C 799.453,685.568 798.953,688.568 798,691.5C 794.953,694.319 792.787,697.652 791.5,701.5C 790.5,701.5 789.5,701.5 788.5,701.5C 790.104,699.212 791.771,696.879 793.5,694.5C 794.429,693.311 794.762,691.978 794.5,690.5C 795.5,690.5 796.5,690.5 797.5,690.5C 797.5,688.167 797.5,685.833 797.5,683.5C 786.654,683.828 775.987,683.494 765.5,682.5 Z"/></g>
<g><path style="opacity:1" fill="#f6b2b3" d="M 765.5,682.5 C 775.987,683.494 786.654,683.828 797.5,683.5C 797.5,685.833 797.5,688.167 797.5,690.5C 796.5,690.5 795.5,690.5 794.5,690.5C 794.762,691.978 794.429,693.311 793.5,694.5C 791.771,696.879 790.104,699.212 788.5,701.5C 784.805,703.797 780.805,705.63 776.5,707C 773.833,707.667 771.167,707.667 768.5,707C 764.612,701.049 761.945,694.549 760.5,687.5C 760.492,684.335 761.659,681.668 764,679.5C 764.513,680.527 765.013,681.527 765.5,682.5 Z"/></g>
<g><path style="opacity:0.99" fill="#3e3c55" d="M 755.5,714.5 C 760.791,718.444 766.124,722.444 771.5,726.5C 781.471,743.795 790.804,761.462 799.5,779.5C 811.468,780.148 823.468,780.814 835.5,781.5C 837.576,783.937 837.909,786.603 836.5,789.5C 835.735,790.612 834.735,791.279 833.5,791.5C 832.833,791.5 832.5,791.167 832.5,790.5C 821.679,789.505 810.679,789.172 799.5,789.5C 799.721,792.067 800.388,794.401 801.5,796.5C 800.848,797.725 799.681,798.392 798,798.5C 794.857,797.893 791.69,797.559 788.5,797.5C 785.883,801.735 784.717,806.402 785,811.5C 790.64,814.592 796.807,816.259 803.5,816.5C 807.833,817.167 812.167,817.833 816.5,818.5C 816.833,818.5 817.167,818.5 817.5,818.5C 817.03,821.346 817.863,823.679 820,825.5C 837.089,868.906 855.089,911.572 874,953.5C 875.772,958.181 877.606,962.848 879.5,967.5C 880.474,969.743 880.808,972.076 880.5,974.5C 870.129,978.508 859.462,981.842 848.5,984.5C 832.585,986.558 816.585,988.225 800.5,989.5C 779.849,990.217 759.183,990.05 738.5,989C 737.095,987.731 735.429,987.231 733.5,987.5C 732.711,987.217 732.044,986.717 731.5,986C 722.79,985.798 714.124,985.131 705.5,984C 704.525,978.259 704.192,972.425 704.5,966.5C 699.87,965.771 695.203,965.437 690.5,965.5C 689.351,965.209 688.684,964.376 688.5,963C 692.321,952.956 695.987,942.956 699.5,933C 698.339,907.239 698.172,881.406 699,855.5C 701.135,847.37 702.135,839.037 702,830.5C 702.95,823.712 704.117,816.878 705.5,810C 705.156,808.635 704.489,807.468 703.5,806.5C 693.811,803.447 684.811,799.114 676.5,793.5C 675.082,791.165 674.082,788.665 673.5,786C 674.5,782.5 675.5,779 676.5,775.5C 681.3,769.467 685.633,763.133 689.5,756.5C 692.879,745.397 698.545,735.731 706.5,727.5C 710.183,725.347 714.183,724.014 718.5,723.5C 723.949,719.979 729.282,716.312 734.5,712.5C 741.651,711.115 748.651,711.782 755.5,714.5 Z"/></g>
<g><path style="opacity:0.999" fill="#668965" d="M 832.5,790.5 C 822.167,790.5 811.833,790.5 801.5,790.5C 801.5,792.5 801.5,794.5 801.5,796.5C 800.388,794.401 799.721,792.067 799.5,789.5C 810.679,789.172 821.679,789.505 832.5,790.5 Z"/></g>
<g><path style="opacity:0.813" fill="#a2e389" d="M 832.5,790.5 C 832.5,791.167 832.833,791.5 833.5,791.5C 831.731,799.717 830.564,808.05 830,816.5C 829.5,817 829,817.5 828.5,818C 824.848,818.499 821.182,818.665 817.5,818.5C 817.167,818.5 816.833,818.5 816.5,818.5C 819.243,815.595 822.243,812.762 825.5,810C 827.196,803.392 824.863,798.725 818.5,796C 812.782,795.26 807.115,795.427 801.5,796.5C 801.5,794.5 801.5,792.5 801.5,790.5C 811.833,790.5 822.167,790.5 832.5,790.5 Z"/></g>
<g><path style="opacity:1" fill="#f8b6b4" d="M 816.5,818.5 C 812.167,817.833 807.833,817.167 803.5,816.5C 798.328,814.446 792.828,812.779 787,811.5C 786.676,806.698 787.176,802.031 788.5,797.5C 791.69,797.559 794.857,797.893 798,798.5C 799.681,798.392 800.848,797.725 801.5,796.5C 807.115,795.427 812.782,795.26 818.5,796C 824.863,798.725 827.196,803.392 825.5,810C 822.243,812.762 819.243,815.595 816.5,818.5 Z"/></g>
<g><path style="opacity:1" fill="#876b7a" d="M 788.5,797.5 C 787.176,802.031 786.676,806.698 787,811.5C 792.828,812.779 798.328,814.446 803.5,816.5C 796.807,816.259 790.64,814.592 785,811.5C 784.717,806.402 785.883,801.735 788.5,797.5 Z"/></g>
<g><path style="opacity:0.949" fill="#2f2e41" d="M 690.5,965.5 C 695.203,965.437 699.87,965.771 704.5,966.5C 704.192,972.425 704.525,978.259 705.5,984C 714.124,985.131 722.79,985.798 731.5,986C 732.044,986.717 732.711,987.217 733.5,987.5C 733.657,988.873 733.49,990.207 733,991.5C 726.014,1004.45 719.014,1017.45 712,1030.5C 709.813,1035.54 707.646,1040.54 705.5,1045.5C 700.899,1045.94 696.565,1045.28 692.5,1043.5C 686.285,1040.98 679.785,1038.98 673,1037.5C 670.784,1037.65 668.617,1037.99 666.5,1038.5C 664.156,1038.49 662.822,1037.33 662.5,1035C 670.597,1015.26 678.597,995.424 686.5,975.5C 687.833,975.5 688.5,974.833 688.5,973.5C 688.693,970.692 689.36,968.025 690.5,965.5 Z"/></g>
<g><path style="opacity:0.005" fill="#0000ff" d="M 688.5,973.5 C 688.5,974.833 687.833,975.5 686.5,975.5C 686.833,974.5 687.5,973.833 688.5,973.5 Z"/></g>
<g><path style="opacity:0.944" fill="#2f2e41" d="M 848.5,984.5 C 854.647,1001.54 861.647,1018.04 869.5,1034C 866.715,1037.46 863.048,1038.96 858.5,1038.5C 850.79,1040.52 843.124,1042.52 835.5,1044.5C 835.5,1045.83 835.5,1047.17 835.5,1048.5C 831.881,1049.24 828.215,1049.58 824.5,1049.5C 816.523,1029.56 808.523,1009.56 800.5,989.5C 816.585,988.225 832.585,986.558 848.5,984.5 Z"/></g>
<g><path style="opacity:0.87" fill="#9fe889" d="M 130.5,1026.5 C 135.179,1026.33 139.845,1026.5 144.5,1027C 146.624,1027.96 148.624,1029.12 150.5,1030.5C 154.316,1042.89 149.816,1049.22 137,1049.5C 132.23,1049.39 127.896,1048.06 124,1045.5C 118.954,1036.44 121.121,1030.11 130.5,1026.5 Z"/></g>
<g><path style="opacity:0.887" fill="#9fe989" d="M 355.5,1027.5 C 360.544,1027.17 365.544,1027.51 370.5,1028.5C 377.403,1031.36 379.736,1036.36 377.5,1043.5C 376.455,1045.4 375.122,1047.07 373.5,1048.5C 369.775,1049.23 366.108,1050.23 362.5,1051.5C 357.897,1050.36 353.563,1048.69 349.5,1046.5C 346.689,1042.85 346.022,1038.85 347.5,1034.5C 349.652,1031.33 352.319,1029 355.5,1027.5 Z"/></g>
<g><path style="opacity:0.882" fill="#9ee888" d="M 1083.5,1029.5 C 1089.18,1029.33 1094.84,1029.5 1100.5,1030C 1102.92,1030.91 1104.92,1032.41 1106.5,1034.5C 1109.56,1046.45 1104.89,1052.11 1092.5,1051.5C 1080.04,1052.24 1075.37,1046.58 1078.5,1034.5C 1080.21,1032.79 1081.88,1031.12 1083.5,1029.5 Z"/></g>
<g><path style="opacity:0.879" fill="#f3b0b1" d="M 692.5,1043.5 C 691.833,1045.83 691.167,1048.17 690.5,1050.5C 682.675,1050.42 675.008,1049.25 667.5,1047C 665.937,1046.24 664.937,1045.07 664.5,1043.5C 666.256,1042.45 666.923,1040.78 666.5,1038.5C 668.617,1037.99 670.784,1037.65 673,1037.5C 679.785,1038.98 686.285,1040.98 692.5,1043.5 Z"/></g>
<g><path style="opacity:0.895" fill="#f6b4b4" d="M 858.5,1038.5 C 858.5,1039.83 858.5,1041.17 858.5,1042.5C 859.5,1042.5 860.5,1042.5 861.5,1042.5C 861.365,1045.42 862.032,1048.08 863.5,1050.5C 857.833,1052.53 852.166,1054.7 846.5,1057C 843.739,1057.72 841.073,1057.56 838.5,1056.5C 836.977,1054.1 835.977,1051.44 835.5,1048.5C 835.5,1047.17 835.5,1045.83 835.5,1044.5C 843.124,1042.52 850.79,1040.52 858.5,1038.5 Z"/></g>
<g><path style="opacity:0.913" fill="#302e41" d="M 664.5,1043.5 C 664.937,1045.07 665.937,1046.24 667.5,1047C 675.008,1049.25 682.675,1050.42 690.5,1050.5C 693.839,1050.89 697.173,1051.39 700.5,1052C 705.584,1053.38 710.251,1055.54 714.5,1058.5C 714.967,1060.71 715.967,1062.71 717.5,1064.5C 718.484,1067.43 718.817,1070.43 718.5,1073.5C 708.659,1074.61 698.659,1074.61 688.5,1073.5C 676.841,1070.94 665.174,1068.28 653.5,1065.5C 653.336,1062.81 653.503,1060.15 654,1057.5C 655.947,1052.61 658.114,1047.95 660.5,1043.5C 661.833,1043.5 663.167,1043.5 664.5,1043.5 Z"/></g>
<g><path style="opacity:0.909" fill="#312f42" d="M 867.5,1073.5 C 858.675,1074.6 850.008,1074.6 841.5,1073.5C 838.595,1068.57 836.595,1063.23 835.5,1057.5C 836.791,1057.74 837.791,1057.4 838.5,1056.5C 841.073,1057.56 843.739,1057.72 846.5,1057C 852.166,1054.7 857.833,1052.53 863.5,1050.5C 876.444,1044.8 889.11,1045.3 901.5,1052C 904.32,1054.48 906.32,1057.48 907.5,1061C 906.167,1062 904.833,1063 903.5,1064C 891.27,1066.99 879.27,1070.16 867.5,1073.5 Z"/></g>
<g><path style="opacity:0.828" fill="#3f3c56" d="M 167.5,1046.5 C 170.004,1047.64 172.67,1048.31 175.5,1048.5C 175.321,1050.61 174.321,1052.27 172.5,1053.5C 167.484,1055.06 163.151,1057.73 159.5,1061.5C 155.455,1063.83 151.455,1066.17 147.5,1068.5C 146.311,1069.43 144.978,1069.76 143.5,1069.5C 142.825,1059.51 147.158,1052.68 156.5,1049C 160.633,1049.09 164.299,1048.26 167.5,1046.5 Z"/></g>
<g><path style="opacity:0.839" fill="#3f3d55" d="M 390.5,1048.5 C 393.833,1048.5 397.167,1048.5 400.5,1048.5C 400.785,1050.29 400.452,1051.95 399.5,1053.5C 391.339,1058.41 383.339,1063.58 375.5,1069C 373.323,1070.2 370.989,1070.7 368.5,1070.5C 369.882,1057.12 377.216,1049.78 390.5,1048.5 Z"/></g>
<g><path style="opacity:0.809" fill="#403d57" d="M 1118.5,1050.5 C 1122.83,1050.5 1127.17,1050.5 1131.5,1050.5C 1131.5,1051.83 1131.5,1053.17 1131.5,1054.5C 1126.68,1055.34 1122.68,1057.67 1119.5,1061.5C 1112.78,1064.28 1106.61,1067.94 1101,1072.5C 1098.64,1070.35 1097.97,1067.68 1099,1064.5C 1101.34,1060.57 1104.17,1057.07 1107.5,1054C 1111.11,1052.41 1114.78,1051.24 1118.5,1050.5 Z"/></g>
<g><path style="opacity:0.934" fill="#dcdcdd" d="M 301.5,1063.5 C 302.167,1066.83 302.833,1070.17 303.5,1073.5C 296.55,1074.59 289.55,1074.76 282.5,1074C 286.596,1070.92 290.596,1067.75 294.5,1064.5C 296.821,1062.65 299.154,1062.32 301.5,1063.5 Z"/></g>
<g><path style="opacity:0.004" fill="#0000ed" d="M 551.5,1069.5 C 552.833,1069.5 553.5,1070.17 553.5,1071.5C 553.5,1070.17 552.833,1069.5 551.5,1069.5 Z"/></g>
<g><path style="opacity:0.791" fill="#dbdbdd" d="M 1693.5,1073.5 C 1693.5,1072.17 1693.5,1070.83 1693.5,1069.5C 1694.25,1068.43 1695.25,1068.26 1696.5,1069C 1706.78,1074.4 1705.78,1075.9 1693.5,1073.5 Z"/></g>
<g><path style="opacity:1" fill="#7d7c8c" d="M 1023.5,1074.5 C 1032.5,1074.5 1041.5,1074.5 1050.5,1074.5C 1050.39,1075.12 1050.06,1075.62 1049.5,1076C 1041.17,1076.67 1032.83,1076.67 1024.5,1076C 1023.94,1075.62 1023.61,1075.12 1023.5,1074.5 Z"/></g>
</svg>
